<svg width="1280" height="1036" viewBox="0 0 1280 1036" fill="none" xmlns="http://www.w3.org/2000/svg">
  <rect width="1280" height="1036" fill="#0F3C60"/>

  <g fill="#E8CF85">
    <path d="M496 174C496 156 508 144 526 144H580C598 144 610 156 610 174V179C610 202 596 216 573 216H553C533 216 520 229 520 249V269H496V174Z"/>
    <path d="M771 174C771 156 783 144 801 144H855C873 144 885 156 885 174V269H861V249C861 229 848 216 828 216H808C785 216 771 202 771 179V174Z"/>
    <path d="M489 232H792C825 232 847 253 847 287V290C847 324 825 346 792 346H706V570C706 590 716 600 736 600H748V622H717C685 622 665 602 665 570V346H615V618C615 646 595 664 567 664H553V642H561C578 642 588 632 588 615V346H489C456 346 434 324 434 290V287C434 253 456 232 489 232Z"/>
    <path d="M488 300C488 281 500 269 519 269H572V300H488Z"/>
    <path d="M708 269H761C780 269 792 281 792 300V300H708V269Z"/>
    <path d="M474 315H574V632C574 651 562 663 543 663H519V644H523C540 644 550 634 550 617V339H474V315Z"/>
    <path d="M708 315H808V617C808 634 818 644 835 644H839V663H815C796 663 784 651 784 632V339H708V315Z"/>
    <path d="M450 424H838V454H450V424Z"/>
    <path d="M425 424H468V454H425C403 454 387 470 387 492V501H360V487C360 451 389 424 425 424Z"/>
    <path d="M820 424H863C899 424 928 451 928 487V501H901V492C901 470 885 454 863 454H820V424Z"/>
    <path d="M434 704H825V748H434V704Z"/>
    <path d="M461 633H503V728L448 784V647C448 639 453 633 461 633Z"/>
    <path d="M756 633H798C806 633 811 639 811 647V784L756 728V633Z"/>
    <path d="M487 784H808V820H487V784Z"/>
  </g>

  <text
    x="640"
    y="910"
    text-anchor="middle"
    font-family="Arial, Helvetica, sans-serif"
    font-size="86"
    font-weight="800"
    letter-spacing="8"
    fill="#E8CF85"
  >
    HOTEL
  </text>
  <text
    x="640"
    y="1010"
    text-anchor="middle"
    font-family="Arial, Helvetica, sans-serif"
    font-size="92"
    font-weight="800"
    letter-spacing="8"
    fill="#E8CF85"
  >
    TASHKENT
  </text>
</svg>
