<svg width="839" height="1470" viewBox="110 93 839 1455" fill="none" xmlns="http://www.w3.org/2000/svg">
  <g fill="#0F3C60">
    <path d="M262 320C185 320 145 365 145 445V458H189V447C189 397 219 368 267 368H434C478 368 510 399 510 443V817H554V443C554 399 586 368 630 368H797C845 368 875 397 875 447V458H919V445C919 365 879 320 802 320H262Z"/>
    <path d="M252 306C232 286 214 251 214 211V207C214 138 260 93 328 93H696C764 93 810 138 810 207V211C810 251 792 286 772 306L743 276C759 259 766 238 766 214V204C766 161 738 137 695 137H329C286 137 258 161 258 204V214C258 238 265 259 281 276L252 306Z"/>
    <path d="M267 320H757V368H267V320Z"/>
    <path d="M145 495C145 458 175 429 212 429H219V1536H145V495Z"/>
    <path d="M875 429H882C919 429 949 458 949 495V1536H875V429Z"/>
    <path d="M249 430H293V1426C293 1473 324 1504 371 1504V1548C298 1548 249 1499 249 1426V430Z"/>
    <path d="M731 430H775V1426C775 1499 726 1548 653 1548V1504C700 1504 731 1473 731 1426V430Z"/>
    <path d="M110 829H436V877H110V829Z"/>
    <path d="M588 829H914V877H588V829Z"/>
    <path d="M489 877H535V1070C535 1104 509 1131 475 1131H426V1087H468C480 1087 489 1078 489 1066V877Z"/>
    <path d="M535 877H579V1066C579 1078 588 1087 600 1087H647V1131H603C569 1131 535 1104 535 1070V877Z"/>
    <path d="M145 1453C145 1418 174 1389 209 1389H219V1433H212C199 1433 189 1443 189 1456V1460C189 1485 206 1501 231 1501H262V1545H225C178 1545 145 1512 145 1465V1453Z"/>
    <path d="M875 1433V1389H885C920 1389 949 1418 949 1453V1465C949 1512 916 1545 869 1545H831V1501H863C888 1501 905 1485 905 1460V1456C905 1443 895 1433 882 1433H875Z"/>
    <path d="M145 517C145 482 174 453 209 453H219V497H212C199 497 189 507 189 520V524C189 549 206 565 231 565H262V609H225C178 609 145 576 145 529V517Z"/>
    <path d="M875 497V453H885C920 453 949 482 949 517V529C949 576 916 609 869 609H831V565H863C888 565 905 549 905 524V520C905 507 895 497 882 497H875Z"/>
  </g>
</svg>
